<svg version="1.1" xmlns="http://www.w3.org/2000/svg" fill-rule="evenodd" clip-rule="evenodd" height="1015" width="1024" viewBox="0 0 1033 1024"><path d="M521.682837 0c-282.754197 0-511.980801 229.239404-511.980801 511.980801 0 282.766996 229.226604 511.980801 511.980801 511.9808 282.766996 0 511.980801-229.213804 511.980801-511.9808 0-282.741397-229.213804-511.980801-511.980801-511.980801z m0 985.563041c-261.558192 0-473.582241-212.01125-473.582241-473.58224s212.024049-473.582241 473.582241-473.582241c261.570991 0 473.582241 212.01125 473.582241 473.582241s-212.024049 473.582241-473.582241 473.58224z"></path><path d="M654.797845 699.647363H346.751797a18.559304 18.559304 0 0 0-18.520906 18.533705c0 10.214017 8.319688 18.508106 18.520906 18.508106h308.046048a18.520905 18.520905 0 1 0 0-37.041811z"></path><path d="M341.951977 679.974501a17.560941 17.560941 0 0 0 18.367311 4.083047l88.316688-31.602015 0.819169 0.26879c10.303614 3.302276 21.976776 0.409585 29.88688-7.436521l233.399247-245.59719c5.529393-5.542192 8.550079-12.837919 8.55008-20.607228s-3.020687-15.090634-8.498882-20.568828l-62.896841-62.743247a28.926915 28.926915 0 0 0-20.568829-8.498882c-7.615714 0-14.796245 2.918291-20.24884 8.217292l-248.323488 232.055298a29.016512 29.016512 0 0 0-7.078135 29.579691l0.26879 0.80637-30.92364 89.084659a17.688937 17.688937 0 0 0 4.172643 18.200917l14.757847 14.757847z m287.259628-355.186681l54.436358 54.436359-1.702336 1.804732-223.697211 235.395973-68.183043-68.131845 239.146232-223.505219zM380.619327 588.509131l37.59219 37.60499-57.828231 20.671225 20.236041-58.276215z"></path></svg>